HIERARCHY
ROOT Hips
{
  OFFSET 0.849866 78.6569 -0.536788
  CHANNELS 6 Xposition Yposition Zposition Zrotation Xrotation Yrotation
  JOINT Bip01_Pelvis
  {
    OFFSET 0 0 0
    CHANNELS 6 Xposition Yposition Zposition Zrotation Xrotation Yrotation
    JOINT BN_Tail_01
    {
      OFFSET -5.52397 -0.332285 0
      CHANNELS 6 Xposition Yposition Zposition Zrotation Xrotation Yrotation
      JOINT BN_Tail_02
      {
        OFFSET 6.48885 -2.032e-005 0
        CHANNELS 6 Xposition Yposition Zposition Zrotation Xrotation Yrotation
        JOINT BN_Tail_03
        {
          OFFSET 7.08759 1.016e-005 -0.00261112
          CHANNELS 6 Xposition Yposition Zposition Zrotation Xrotation Yrotation
          End Site
          {
            OFFSET 0 0 0
          }
        }
      }
    }
    JOINT Bip01_Spine
    {
      OFFSET 4.02227 0.398968 0
      CHANNELS 6 Xposition Yposition Zposition Zrotation Xrotation Yrotation
      JOINT BN_UpperArm_R_01
      {
        OFFSET 4.84413 -3.22857 -3.65581
        CHANNELS 6 Xposition Yposition Zposition Zrotation Xrotation Yrotation
        JOINT BN_Forearm_R_01
        {
          OFFSET 8.51614 0 0
          CHANNELS 6 Xposition Yposition Zposition Zrotation Xrotation Yrotation
          JOINT BN_hand_R_01
          {
            OFFSET 10.1924 0 0
            CHANNELS 6 Xposition Yposition Zposition Zrotation Xrotation Yrotation
            JOINT BN_Finger_R_02
            {
              OFFSET 14.5949 -1.43855 0.585079
              CHANNELS 6 Xposition Yposition Zposition Zrotation Xrotation Yrotation
              End Site
              {
                OFFSET 0 0 0
              }
            }
            JOINT BN_Finger_R_01
            {
              OFFSET 14.4623 0 0
              CHANNELS 6 Xposition Yposition Zposition Zrotation Xrotation Yrotation
              End Site
              {
                OFFSET 0 0 0
              }
            }
          }
        }
      }
      JOINT BN_UpperArm_L_01
      {
        OFFSET 4.84412 -3.22858 3.65557
        CHANNELS 6 Xposition Yposition Zposition Zrotation Xrotation Yrotation
        JOINT BN_Forearm_L_01
        {
          OFFSET 8.51611 0 0
          CHANNELS 6 Xposition Yposition Zposition Zrotation Xrotation Yrotation
          JOINT BN_hand_L_01
          {
            OFFSET 10.1924 0 0
            CHANNELS 6 Xposition Yposition Zposition Zrotation Xrotation Yrotation
            JOINT BN_Finger_L_01
            {
              OFFSET 14.4623 0 0
              CHANNELS 6 Xposition Yposition Zposition Zrotation Xrotation Yrotation
              End Site
              {
                OFFSET 0 0 0
              }
            }
            JOINT BN_Finger_L_02
            {
              OFFSET 14.5949 1.43855 0.585071
              CHANNELS 6 Xposition Yposition Zposition Zrotation Xrotation Yrotation
              End Site
              {
                OFFSET 0 0 0
              }
            }
          }
        }
      }
      JOINT Bip01_R_Thigh
      {
        OFFSET -4.03411 -0.254132 -3.45377
        CHANNELS 6 Xposition Yposition Zposition Zrotation Xrotation Yrotation
        JOINT Bip01_R_Calf
        {
          OFFSET 3.92618 0 0
          CHANNELS 6 Xposition Yposition Zposition Zrotation Xrotation Yrotation
          JOINT Bip01_R_HorseLink
          {
            OFFSET 6.12319 0 0
            CHANNELS 6 Xposition Yposition Zposition Zrotation Xrotation Yrotation
            JOINT Bip01_R_Foot
            {
              OFFSET 9.94776 0 0
              CHANNELS 6 Xposition Yposition Zposition Zrotation Xrotation Yrotation
              JOINT Bip01_R_Toe3
              {
                OFFSET 0.881252 -0.110953 0.0158496
                CHANNELS 6 Xposition Yposition Zposition Zrotation Xrotation Yrotation
                JOINT Bip01_R_Toe31
                {
                  OFFSET 2.32137 0 0
                  CHANNELS 6 Xposition Yposition Zposition Zrotation Xrotation Yrotation
                  JOINT Bip01_R_Toe32
                  {
                    OFFSET 1.63293 0 0
                    CHANNELS 6 Xposition Yposition Zposition Zrotation Xrotation Yrotation
                    JOINT Bip01_R_Toe3Nub
                    {
                      OFFSET 1.72131 0 0
                      CHANNELS 6 Xposition Yposition Zposition Zrotation Xrotation Yrotation
                      End Site
                      {
                        OFFSET 0 0 0
                      }
                    }
                  }
                }
              }
              JOINT Bip01_R_Toe2
              {
                OFFSET 0.994751 0.967285 -1.09428
                CHANNELS 6 Xposition Yposition Zposition Zrotation Xrotation Yrotation
                JOINT Bip01_R_Toe21
                {
                  OFFSET 2.20201 0 0
                  CHANNELS 6 Xposition Yposition Zposition Zrotation Xrotation Yrotation
                  JOINT Bip01_R_Toe22
                  {
                    OFFSET 1.84925 0 0
                    CHANNELS 6 Xposition Yposition Zposition Zrotation Xrotation Yrotation
                    JOINT Bip01_R_Toe2Nub
                    {
                      OFFSET 1.70976 0 0
                      CHANNELS 6 Xposition Yposition Zposition Zrotation Xrotation Yrotation
                      End Site
                      {
                        OFFSET 0 0 0
                      }
                    }
                  }
                }
              }
              JOINT Bip01_R_Toe1
              {
                OFFSET 1.3748 1.34027 -0.0712419
                CHANNELS 6 Xposition Yposition Zposition Zrotation Xrotation Yrotation
                JOINT Bip01_R_Toe11
                {
                  OFFSET 2.26122 0 0
                  CHANNELS 6 Xposition Yposition Zposition Zrotation Xrotation Yrotation
                  JOINT Bip01_R_Toe12
                  {
                    OFFSET 2.22215 0 0
                    CHANNELS 6 Xposition Yposition Zposition Zrotation Xrotation Yrotation
                    JOINT Bip01_R_Toe1Nub
                    {
                      OFFSET 1.61867 0 0
                      CHANNELS 6 Xposition Yposition Zposition Zrotation Xrotation Yrotation
                      End Site
                      {
                        OFFSET 0 0 0
                      }
                    }
                  }
                }
              }
              JOINT Bip01_R_Toe0
              {
                OFFSET 1.40695 0.687986 0.883783
                CHANNELS 6 Xposition Yposition Zposition Zrotation Xrotation Yrotation
                JOINT Bip01_R_Toe01
                {
                  OFFSET 2.26828 0 0
                  CHANNELS 6 Xposition Yposition Zposition Zrotation Xrotation Yrotation
                  JOINT Bip01_R_Toe02
                  {
                    OFFSET 2.09769 0 0
                    CHANNELS 6 Xposition Yposition Zposition Zrotation Xrotation Yrotation
                    JOINT Bip01_R_Toe0Nub
                    {
                      OFFSET 1.53753 0 0
                      CHANNELS 6 Xposition Yposition Zposition Zrotation Xrotation Yrotation
                      End Site
                      {
                        OFFSET 0 0 0
                      }
                    }
                  }
                }
              }
            }
          }
        }
      }
      JOINT Bip01_L_Thigh
      {
        OFFSET -4.03411 -0.254147 3.45377
        CHANNELS 6 Xposition Yposition Zposition Zrotation Xrotation Yrotation
        JOINT Bip01_L_Calf
        {
          OFFSET 3.92616 0 0
          CHANNELS 6 Xposition Yposition Zposition Zrotation Xrotation Yrotation
          JOINT Bip01_L_HorseLink
          {
            OFFSET 6.1232 0 0
            CHANNELS 6 Xposition Yposition Zposition Zrotation Xrotation Yrotation
            JOINT Bip01_L_Foot
            {
              OFFSET 9.94775 0 0
              CHANNELS 6 Xposition Yposition Zposition Zrotation Xrotation Yrotation
              JOINT Bip01_L_Toe3
              {
                OFFSET 0.881246 -0.110986 -0.0157582
                CHANNELS 6 Xposition Yposition Zposition Zrotation Xrotation Yrotation
                JOINT Bip01_L_Toe31
                {
                  OFFSET 2.32136 0 0
                  CHANNELS 6 Xposition Yposition Zposition Zrotation Xrotation Yrotation
                  JOINT Bip01_L_Toe32
                  {
                    OFFSET 1.63293 0 0
                    CHANNELS 6 Xposition Yposition Zposition Zrotation Xrotation Yrotation
                    JOINT Bip01_L_Toe3Nub
                    {
                      OFFSET 1.7213 0 0
                      CHANNELS 6 Xposition Yposition Zposition Zrotation Xrotation Yrotation
                      End Site
                      {
                        OFFSET 0 0 0
                      }
                    }
                  }
                }
              }
              JOINT Bip01_L_Toe2
              {
                OFFSET 0.994649 0.967162 1.09447
                CHANNELS 6 Xposition Yposition Zposition Zrotation Xrotation Yrotation
                JOINT Bip01_L_Toe21
                {
                  OFFSET 2.202 0 0
                  CHANNELS 6 Xposition Yposition Zposition Zrotation Xrotation Yrotation
                  JOINT Bip01_L_Toe22
                  {
                    OFFSET 1.84926 0 0
                    CHANNELS 6 Xposition Yposition Zposition Zrotation Xrotation Yrotation
                    JOINT Bip01_L_Toe2Nub
                    {
                      OFFSET 1.70976 0 0
                      CHANNELS 6 Xposition Yposition Zposition Zrotation Xrotation Yrotation
                      End Site
                      {
                        OFFSET 0 0 0
                      }
                    }
                  }
                }
              }
              JOINT Bip01_L_Toe1
              {
                OFFSET 1.37483 1.34021 0.0715086
                CHANNELS 6 Xposition Yposition Zposition Zrotation Xrotation Yrotation
                JOINT Bip01_L_Toe11
                {
                  OFFSET 2.26124 0 0
                  CHANNELS 6 Xposition Yposition Zposition Zrotation Xrotation Yrotation
                  JOINT Bip01_L_Toe12
                  {
                    OFFSET 2.22214 0 0
                    CHANNELS 6 Xposition Yposition Zposition Zrotation Xrotation Yrotation
                    JOINT Bip01_L_Toe1Nub
                    {
                      OFFSET 1.61867 0 0
                      CHANNELS 6 Xposition Yposition Zposition Zrotation Xrotation Yrotation
                      End Site
                      {
                        OFFSET 0 0 0
                      }
                    }
                  }
                }
              }
              JOINT Bip01_L_Toe0
              {
                OFFSET 1.40707 0.688009 -0.883564
                CHANNELS 6 Xposition Yposition Zposition Zrotation Xrotation Yrotation
                JOINT Bip01_L_Toe01
                {
                  OFFSET 2.26828 0 0
                  CHANNELS 6 Xposition Yposition Zposition Zrotation Xrotation Yrotation
                  JOINT Bip01_L_Toe02
                  {
                    OFFSET 2.0977 0 0
                    CHANNELS 6 Xposition Yposition Zposition Zrotation Xrotation Yrotation
                    JOINT Bip01_L_Toe0Nub
                    {
                      OFFSET 1.53752 0 0
                      CHANNELS 6 Xposition Yposition Zposition Zrotation Xrotation Yrotation
                      End Site
                      {
                        OFFSET 0 0 0
                      }
                    }
                  }
                }
              }
            }
          }
        }
      }
      JOINT Bip01_Spine1
      {
        OFFSET 4.90674 -0.00437896 0
        CHANNELS 6 Xposition Yposition Zposition Zrotation Xrotation Yrotation
        JOINT Bip01_Neck
        {
          OFFSET 5.56447 -1.28357 0
          CHANNELS 6 Xposition Yposition Zposition Zrotation Xrotation Yrotation
          JOINT Bip01_Neck1
          {
            OFFSET 2.79308 -0.00219964 0
            CHANNELS 6 Xposition Yposition Zposition Zrotation Xrotation Yrotation
            JOINT Bip01_Head
            {
              OFFSET 2.79272 0 0
              CHANNELS 6 Xposition Yposition Zposition Zrotation Xrotation Yrotation
              JOINT BN_Mouth_01
              {
                OFFSET 4.19089 0.0665938 0
                CHANNELS 6 Xposition Yposition Zposition Zrotation Xrotation Yrotation
                End Site
                {
                  OFFSET 0 0 0
                }
              }
              JOINT Bip01_HeadNub
              {
                OFFSET 6.95118 0 0
                CHANNELS 6 Xposition Yposition Zposition Zrotation Xrotation Yrotation
                End Site
                {
                  OFFSET 0 0 0
                }
              }
            }
          }
        }
      }
    }
  }
}
MOTION
Frames:	3
Frame Time:	0.0333333
-0.439854 109.297 1.9383e-006 -107.45 -78.7335 -5.21936 0 0 0 -89.9989 6.18129 -89.9988 -5.52396 -0.332276 8.88178e-016 -10.2513 0.00811769 179.961 6.48885 3.41913e-011 -0.00446786 5.91632 -1.90155e-007 5.78634e-008 7.08759 -7.62935e-006 -0.00440436 -9.91633 -0.0199353 0.0287398 4.02166 0.398865 8.88178e-016 -20.5224 0.0336418 -0.185828 4.84413 -3.22853 -3.65581 -83.6841 -3.35031 124.154 8.51611 2.62261e-006 -1.14441e-005 28.3111 0.74061 20.0108 10.1924 2.13163e-014 -1.42108e-014 -31.4187 1.43256 24.4783 14.5949 -1.43855 0.585079 -43.8468 -1.53351 -17.9387 14.4623 -9.53677e-007 -1.42108e-014 -0.862602 -0.271552 -21.3538 4.84413 -3.22855 3.65557 96.001 -4.1754 -56.5658 8.51611 4.76838e-007 0 -27.6923 0.24327 21.3062 10.1924 -7.62941e-006 -5.72204e-006 31.2953 -1.20106 24.1886 14.4623 -7.15258e-007 -1.90735e-006 1.1983 0.286836 -20.9711 14.5949 1.43853 0.585092 43.8271 1.48269 -17.9395 -3.63653 -1.78437 -3.44187 -106.195 16.1787 165.303 3.92613 3.8147e-006 4.76838e-007 -53.4124 -1.51608e-005 -5.7054e-006 6.12321 -7.62942e-006 9.53675e-007 103.413 -2.03813e-006 -8.13864e-006 9.94776 7.62932e-006 -0.00142002 -23.9359 30.6023 -18.2586 0.881235 -0.110986 0.0158141 165.428 -4.48225 -179.156 2.32136 -3.81472e-006 2.16716e-013 34.9219 -0.0151027 -0.0216287 1.63293 -1.4211e-014 -9.53675e-007 -111.315 -0.00700321 -0.00272396 1.72131 -2.86108e-006 -8.88179e-014 -3.03831e-007 1.09474e-005 1.05181e-006 0.994699 0.967071 -1.09449 37.8785 -23.2864 15.0205 2.202 2.38421e-006 2.55795e-013 16.3794 -0.011543 -0.0392842 1.84926 1.14442e-005 7.38964e-013 -52.2672 -0.00439117 0.00337167 1.70976 -2.38423e-007 0 -1.0313e-005 7.13145e-007 3.2697e-006 1.37481 1.34022 -0.0715391 41.2284 2.02644 -1.77507 2.26123 2.8422e-014 -1.77636e-015 7.7033 -0.0045048 -0.033402 2.22215 0 -2.07834e-013 -65.4348 -0.0010979 0.00177898 1.61868 3.81476e-006 -4.76837e-007 2.89302e-007 1.54533e-006 1.02348e-005 1.407 0.688092 0.883588 49.1273 22.1584 -23.5521 2.26829 -9.53683e-007 -5.72204e-006 12.5782 -0.0039337 -0.0177285 2.0977 3.81474e-006 1.90735e-006 -75.6438 -9.45743e-006 1.6968e-005 1.53753 -1.90739e-006 1.90735e-006 7.23276e-007 1.00222e-005 1.64661e-007 -3.61366 -1.78114 3.46674 -125.249 0.00420895 178.037 3.92616 0 1.78814e-007 -122.046 -2.47758e-006 7.84044e-007 6.1232 -1.52588e-005 -5.96048e-008 124.565 -7.50135e-006 -8.84167e-006 9.94776 1.42109e-014 -5.96046e-008 -54.0934 -9.8085 1.67242 0.881243 -0.111001 -0.0157478 155.113 4.55346 -179.991 2.32137 3.81473e-006 -9.53674e-007 26.4403 0.0048625 0.00680706 1.63294 -1.5259e-005 1.76081e-013 -46.2693 0.00364505 -0.00348775 1.72131 -7.62952e-006 -4.21885e-015 -179.961 -0.00653269 -0.00321587 0.994668 0.967101 1.09453 45.0276 21.3389 -17.739 2.202 -1.84743e-013 2.86102e-006 18.0574 -0.00966098 -0.0383356 1.84926 1.4211e-014 -1.11022e-016 -72.6421 0.00051107 0.00279349 1.70977 -1.90738e-006 1.33227e-015 179.961 0.00515492 -0.00137077 1.37486 1.34019 0.0715823 49.1754 -1.76158 2.0375 2.26125 -2.8422e-014 -4.76837e-007 15.1846 0.000544834 0.00200712 2.22214 -3.81474e-006 -3.10862e-015 -38.5066 -0.00181898 0.00225785 1.61866 0 -1.33227e-015 179.961 -0.00288056 0.00793836 1.4071 0.688009 -0.883516 58.7024 -17.9154 26.8381 2.26827 -1.90737e-006 -8.88177e-015 17.1652 -2.41424e-007 4.02612e-006 2.09771 5.68441e-014 -5.72204e-006 -61.0245 -0.00453896 0.000461516 1.53753 9.53694e-007 1.90735e-006 179.961 -0.00579735 -0.000627816 4.90624 -0.00437165 5.60743e-011 20.4401 0.817976 12.2612 5.56442 -1.28356 -2.54038e-006 28.7464 5.90135 6.23133 2.79239 -0.00222016 -3.4721e-010 -11.1503 7.67123 9.34364 2.79272 -2.28882e-005 1.15392e-010 72.1696 14.2894 27.6988 4.19088 0.0665894 -3.06667e-009 -167.626 -0.0485535 -179.995 6.95116 7.6294e-006 -4.90274e-013 -4.14846e-009 2.54444e-013 2e-006 
-0.050255 108.945 1.82002e-006 -106.465 -79.8187 -4.02716 0 0 0 -89.999 6.1813 -89.9988 -5.52396 -0.332276 -8.88178e-016 -7.8409 0.006485 179.961 6.48885 2.43858e-011 -0.00446786 6.53989 -1.08592e-007 9.42267e-007 7.08759 -7.62936e-006 -0.00440436 -6.20195 -0.0180317 0.0299709 4.02166 0.398865 0 -22.1044 0.00790218 0.0266981 4.84413 -3.22853 -3.65581 -84.0759 -3.42195 124.456 8.51611 2.62261e-006 -1.14441e-005 25.4072 -0.501814 24.7432 10.1924 7.10544e-015 2.84217e-014 -31.2887 -0.216114 35.1201 14.5949 -1.43855 0.585079 -44.3987 -2.27659 -10.6314 14.4623 -9.53677e-007 3.55271e-015 -3.50388 -0.119011 -11.3709 4.84413 -3.22855 3.65557 96.0084 -3.2133 -55.3652 8.51611 4.76838e-007 2.84217e-014 -25.6068 0.18681 24.186 10.1924 -7.62941e-006 -5.72204e-006 31.3271 0.175152 35.3768 14.4623 -7.15258e-007 -1.90735e-006 3.32682 0.119134 -11.606 14.5949 1.43853 0.585092 44.3578 2.28536 -10.7569 -3.57351 -1.88245 -3.45535 -102.558 16.3714 165.149 3.92613 3.8147e-006 4.76838e-007 -49.0319 -8.85241e-006 -1.06101e-005 6.12321 -7.62941e-006 9.53675e-007 102.333 -1.63333e-006 -8.40748e-006 9.94776 7.62932e-006 -0.00142002 -21.0588 29.9377 -20.1237 0.881235 -0.110986 0.0158141 164.823 -4.48852 -179.205 2.32136 -3.81472e-006 2.12275e-013 37.7363 -0.0144078 -0.0186139 1.63293 -2.13165e-014 -9.53675e-007 -113.162 -0.00778937 -0.00332328 1.72131 -2.86107e-006 -8.9706e-014 -3.03831e-007 1.09474e-005 1.05181e-006 0.994699 0.96707 -1.09449 38.0028 -23.2555 15.0698 2.202 2.38421e-006 2.20268e-013 16.8825 -0.0116101 -0.0382661 1.84926 1.14442e-005 6.46594e-013 -55.8123 -0.0037329 0.00251128 1.70976 -2.38423e-007 -7.10543e-015 -1.0313e-005 7.13145e-007 3.2697e-006 1.37481 1.34022 -0.0715391 41.9599 2.00347 -1.80095 2.26123 0 -8.88179e-016 8.43052 -0.00472814 -0.0319908 2.22215 0 -1.42997e-013 -71.0451 0.000238052 0.0011454 1.61868 3.81476e-006 -4.76837e-007 2.89302e-007 1.54533e-006 1.02348e-005 1.407 0.688092 0.883588 49.8421 21.8677 -23.8199 2.26829 -9.53683e-007 -5.72204e-006 12.4901 -0.00390179 -0.0177073 2.0977 3.81474e-006 1.90735e-006 -78.7136 -9.7822e-006 1.54479e-005 1.53753 -1.90739e-006 1.90735e-006 7.23276e-007 1.00222e-005 1.64661e-007 -3.57588 -1.8821 3.45249 -124.406 0.266154 177.938 3.92616 1.42109e-014 1.78814e-007 -121.14 -1.64516e-006 1.15877e-006 6.1232 -1.52588e-005 -5.96048e-008 125.722 -7.51103e-006 -8.68228e-006 9.94776 0 -5.96046e-008 -50.7767 -8.82876 3.07316 0.881243 -0.111001 -0.0157478 154.461 4.62694 -179.923 2.32137 3.81473e-006 -9.53674e-007 26.4396 0.00664321 0.0103881 1.63294 -1.5259e-005 1.74971e-013 -49.4078 0.00470191 -0.00402961 1.72131 -7.62952e-006 -2.88658e-015 -179.961 -0.00653269 -0.00321587 0.994668 0.967101 1.09453 46.9294 20.7594 -18.4222 2.202 -2.27376e-013 2.86102e-006 18.0478 -0.00571824 -0.0262584 1.84926 4.26331e-014 8.88178e-016 -72.6422 0.000271558 0.0028678 1.70977 -1.90738e-006 0 179.961 0.00515492 -0.00137077 1.37486 1.34019 0.0715823 51.0496 -1.69561 2.09271 2.26125 -1.4211e-014 -4.76837e-007 15.1851 0.000808493 0.00297865 2.22214 -3.81474e-006 -2.22045e-015 -38.5063 -0.00269301 0.00335647 1.61866 7.10554e-015 -1.77636e-015 179.961 -0.00288056 0.00793836 1.4071 0.688008 -0.883516 60.4501 -17.0607 27.3644 2.26828 -1.90737e-006 -8.88177e-015 17.1652 -7.49818e-007 3.75785e-006 2.09771 0 -5.72204e-006 -61.0257 -0.0063164 0.0014465 1.53753 9.53694e-007 1.90735e-006 179.961 -0.00579735 -0.000627816 4.90624 -0.00437165 5.4798e-011 23.6202 -0.125664 10.3415 5.56442 -1.28356 -2.54311e-006 27.9504 4.9988 4.91987 2.79239 -0.00222016 -3.31975e-010 -12.4017 7.98516 7.27778 2.79272 -2.28882e-005 1.15589e-010 73.9851 13.7703 24.6101 4.19088 0.0665894 -2.44493e-009 -165.01 -0.0379334 -179.995 6.95116 7.6294e-006 -3.90798e-013 -4.14849e-009 3.14875e-013 2e-006 
0.300604 108.276 1.68094e-006 -105.331 -80.8295 -3.0954 0 0 0 -89.9989 6.18131 -89.9988 -5.52396 -0.332276 -8.88178e-016 -4.99267 0.00453187 179.961 6.48885 1.43246e-011 -0.00446786 5.87441 -1.97294e-007 -1.82697e-008 7.08759 -7.62937e-006 -0.00440436 -1.60862 -0.0155738 0.0313186 4.02166 0.398865 0 -23.2145 0.0159044 -0.02251 4.84413 -3.22853 -3.65581 -84.2042 -2.8718 123.339 8.51611 2.62261e-006 -1.14441e-005 22.0434 -1.3575 27.3764 10.1924 7.10544e-015 0 -28.4665 -4.45373 41.3332 14.5949 -1.43855 0.585079 -45.3589 -3.03117 -2.95426 14.4623 -9.53676e-007 3.55271e-015 -5.22998 -0.813189 1.79252 4.84413 -3.22855 3.65557 96.1358 -2.37955 -56.3223 8.51611 4.76838e-007 1.42108e-014 -22.6129 0.301319 25.2223 10.1924 -7.62941e-006 -5.72204e-006 28.308 4.58234 42.0854 14.4623 -7.15258e-007 -1.90735e-006 4.87914 0.808931 1.20859 14.5949 1.43853 0.585092 45.7689 3.161 -2.95712 -3.53939 -1.95116 -3.45203 -99.6922 16.2374 165.036 3.92613 3.8147e-006 4.76838e-007 -45.3778 -9.27781e-006 -1.05695e-005 6.12321 -7.62941e-006 9.53675e-007 101.469 -5.46986e-007 -8.80582e-006 9.94776 7.62932e-006 -0.00142002 -18.7853 29.0108 -21.3982 0.881235 -0.110986 0.0158141 164.299 -4.51261 -179.25 2.32137 -3.81472e-006 2.14495e-013 40.1332 -0.0136595 -0.0161985 1.63293 -1.4211e-014 -9.53675e-007 -114.699 -0.00803853 -0.00368749 1.72131 -2.86107e-006 -7.77156e-014 -3.03831e-007 1.09474e-005 1.05181e-006 0.994699 0.96707 -1.09449 38.1246 -23.2252 15.1181 2.202 2.38421e-006 1.84741e-013 17.2773 -0.0115087 -0.0370111 1.84926 1.14442e-005 6.18172e-013 -58.8356 -0.00389515 0.00233264 1.70976 -2.38423e-007 -7.10543e-015 -1.0313e-005 7.13145e-007 3.26969e-006 1.37481 1.34021 -0.0715391 42.5837 1.9853 -1.82097 2.26123 1.4211e-014 -8.88179e-016 9.06507 -0.00512098 -0.0321791 2.22215 0 -1.03917e-013 -75.8453 -0.00233077 0.00178389 1.61868 3.81476e-006 -4.76837e-007 2.89302e-007 1.54533e-006 1.02348e-005 1.407 0.688092 0.883588 50.4593 21.6144 -24.0475 2.26829 -9.53683e-007 -5.72204e-006 12.4048 -0.00387657 -0.0177126 2.0977 3.81474e-006 1.90735e-006 -81.3205 -8.78117e-007 1.29365e-005 1.53753 -1.90739e-006 1.90735e-006 7.23276e-007 1.00222e-005 1.64661e-007 -3.53574 -1.95043 3.45585 -123.782 0.337696 177.641 3.92616 1.42109e-014 1.78814e-007 -120.05 -1.53441e-006 1.09639e-006 6.1232 -1.52588e-005 -5.96048e-008 126.926 -7.52271e-006 -8.50847e-006 9.94776 0 -5.96046e-008 -47.717 -7.72923 4.36655 0.881243 -0.111001 -0.0157478 153.652 4.5451 -179.877 2.32137 3.81473e-006 -9.53674e-007 26.439 0.00836542 0.0138518 1.63294 -1.5259e-005 1.71196e-013 -53.33 0.00759615 -0.00565643 1.72131 -7.62952e-006 -3.33067e-015 -179.961 -0.00653269 -0.00321587 0.994669 0.967101 1.09453 49.2923 20.0038 -19.2452 2.202 -2.13165e-013 2.86102e-006 18.0384 -0.00190647 -0.0145692 1.84926 1.4211e-014 0 -72.6424 3.91341e-005 0.00293976 1.70977 -1.90738e-006 1.77636e-015 179.961 0.00515492 -0.00137077 1.37486 1.34019 0.0715823 53.3902 -1.60735 2.16123 2.26125 0 -4.76837e-007 15.1856 0.00106368 0.00391895 2.22214 -3.81474e-006 -2.66454e-015 -38.506 -0.00353828 0.00441902 1.61866 0 -3.10862e-015 179.961 -0.00288056 0.00793836 1.4071 0.688008 -0.883516 62.6129 -15.9729 27.9795 2.26828 -1.90737e-006 -7.10542e-015 17.1652 -1.1214e-006 3.69496e-006 2.09771 9.94772e-014 -5.72204e-006 -61.0268 -0.00803364 0.00239828 1.53753 9.53694e-007 1.90735e-006 179.961 -0.00579735 -0.000627816 4.90624 -0.00437165 5.08615e-011 26.4635 -2.09143 8.64559 5.56442 -1.28356 -2.54516e-006 27.4188 4.12603 3.2905 2.79239 -0.00222016 -3.1824e-010 -12.5634 8.19965 4.95771 2.79272 -2.28882e-005 1.1574e-010 74.3117 13.7943 20.429 4.19088 0.0665894 -1.82993e-009 -162.457 -0.0269013 -179.995 6.95116 7.6294e-006 -2.84217e-013 -4.14844e-009 1.90833e-013 1.99999e-006 
